<?xml version="1.0" encoding="UTF-8"?>
<svg width="213px" height="64px" viewBox="0 0 213 64" version="1.1" xmlns="http://www.w3.org/2000/svg" xmlns:xlink="http://www.w3.org/1999/xlink">
    <title>CONVUS</title>
    <g id="Page-1" stroke="none" stroke-width="1" fill="none" fill-rule="evenodd">
        <g id="Artboard" transform="translate(-1364.000000, -520.000000)">
            <g id="CONVUS" transform="translate(1364.000000, 520.000000)">
                <g id="Group-16" transform="translate(0.000000, 8.000000)" fill-rule="nonzero">
                    <path d="M17.0425532,33 C22.4138895,33 26.6443407,30.7091618 29.7339069,26.1274855 C30.0427076,25.6695851 29.9218158,25.0480553 29.463904,24.7392713 C29.4243044,24.712568 29.3828425,24.688736 29.3398368,24.6679582 L25.3061555,22.7191282 C24.8624253,22.5047685 24.3286725,22.6456127 24.0484955,23.0510105 C22.2410406,25.6662789 19.9057265,26.973913 17.0425532,26.973913 C11.2021277,26.973913 6.9893617,22.526087 6.9893617,16.5 C6.9893617,10.473913 11.2021277,6.02608696 17.0425532,6.02608696 C19.8829935,6.02608696 22.2167229,7.33411992 24.0437415,9.95018586 C24.3262788,10.3547506 24.861686,10.4927378 25.3045731,10.2751349 L29.3576259,8.28375616 C29.8533239,8.04022018 30.0577277,7.44094781 29.8141801,6.94525546 C29.7951336,6.90649026 29.7735958,6.86899974 29.7497018,6.83301943 C26.7245616,2.27767314 22.4888455,0 17.0425532,0 C7.42021277,0 0,6.64782609 0,16.5 C0,26.3043478 7.42021277,33 17.0425532,33 Z" id="Path" fill="#1F1F1F"></path>
                    <path d="M49.5957447,0 C59.2180851,0 66.2553191,6.88695652 66.2553191,16.5 C66.2553191,26.1130435 59.2180851,33 49.5957447,33 C39.9255319,33 32.8882979,26.1130435 32.8882979,16.5 C32.8882979,6.88695652 39.9255319,0 49.5957447,0 Z M49.5957447,6.02608696 C43.6595745,6.02608696 39.8776596,10.5217391 39.8776596,16.5 C39.8776596,22.4304348 43.6595745,26.973913 49.5957447,26.973913 C55.4840426,26.973913 59.2659574,22.4304348 59.2659574,16.5 C59.2659574,10.5217391 55.4840426,6.02608696 49.5957447,6.02608696 Z" id="Combined-Shape" fill="#FF7151"></path>
                    <path d="M77.8404255,31.426087 L77.8404255,11.6217391 L77.8404255,11.6217391 L92.4645744,31.6071429 C92.8412233,32.1218723 93.4407916,32.426087 94.0786088,32.426087 L98.6223404,32.426087 C99.1746252,32.426087 99.6223404,31.9783717 99.6223404,31.426087 L99.6223404,1.52608696 C99.6223404,0.973802207 99.1746252,0.526086957 98.6223404,0.526086957 L93.8244681,0.526086957 C93.2721833,0.526086957 92.8244681,0.973802207 92.8244681,1.52608696 L92.8244681,20.5652174 L92.8244681,20.5652174 L78.6314701,1.33829055 C78.2544219,0.827512115 77.6572597,0.526086957 77.0223897,0.526086957 L72.0425532,0.526086957 C71.4902684,0.526086957 71.0425532,0.973802207 71.0425532,1.52608696 L71.0425532,31.426087 C71.0425532,31.9783717 71.4902684,32.426087 72.0425532,32.426087 L76.8404255,32.426087 C77.3927103,32.426087 77.8404255,31.9783717 77.8404255,31.426087 Z" id="Path" fill="#1F1F1F"></path>
                    <path d="M123.908684,31.1457754 L135.19362,1.88593117 C135.392357,1.37064264 135.135741,0.791811022 134.620452,0.593074553 C134.505647,0.548796497 134.383656,0.526086957 134.260608,0.526086957 L129.414075,0.526086957 C128.571793,0.526086957 127.819781,1.05378752 127.533308,1.84585563 L119.154255,25.0130435 L119.154255,25.0130435 L110.775203,1.84585563 C110.48873,1.05378752 109.736718,0.526086957 108.894436,0.526086957 L104.047903,0.526086957 C103.495618,0.526086957 103.047903,0.973802207 103.047903,1.52608696 C103.047903,1.64913481 103.070612,1.771126 103.11489,1.88593117 L114.399826,31.1457754 C114.697369,31.9172516 115.438985,32.426087 116.265851,32.426087 L122.042659,32.426087 C122.869525,32.426087 123.611141,31.9172516 123.908684,31.1457754 Z" id="Path" fill="#1F1F1F"></path>
                    <path d="M153.095745,33 C162.81383,33 167.505319,27.5478261 167.505319,19.6565217 L167.505319,1.52608696 C167.505319,0.973802207 167.057604,0.526086957 166.505319,0.526086957 L161.56383,0.526086957 C161.011545,0.526086957 160.56383,0.973802207 160.56383,1.52608696 L160.56383,19.4652174 L160.56383,19.4652174 C160.56383,23.9130435 158.026596,26.973913 153.095745,26.973913 C148.164894,26.973913 145.579787,23.9130435 145.579787,19.4652174 L145.579787,1.52608696 C145.579787,0.973802207 145.132072,0.526086957 144.579787,0.526086957 L139.68617,0.526086957 C139.133885,0.526086957 138.68617,0.973802207 138.68617,1.52608696 L138.68617,19.6565217 L138.68617,19.6565217 C138.68617,27.5478261 143.37766,33 153.095745,33 Z" id="Path" fill="#1F1F1F"></path>
                    <path d="M185.218085,33 C193.787234,33 198,28.6 198,22.7652174 C198,10.8565217 179.664894,14.2521739 179.664894,9.23043478 C179.664894,7.3173913 181.292553,6.07391304 184.164894,6.07391304 C187.147171,6.07391304 189.981968,7.03986919 192.669286,8.97178148 C193.11214,9.29009833 193.728391,9.19489268 194.054504,8.75774708 L196.629761,5.30567695 C196.960055,4.86300922 196.868902,4.23640811 196.426204,3.90615405 C196.418068,3.90008447 196.40984,3.89413911 196.401523,3.88832005 C192.742061,1.32799074 188.870632,0.047826087 184.787234,0.047826087 C177.271277,0.047826087 172.675532,4.44782609 172.675532,9.75652174 C172.675532,21.7608696 191.058511,17.8869565 191.058511,23.4347826 C191.058511,25.3 189.287234,26.973913 185.505319,26.973913 C181.97441,26.973913 178.863435,25.7808826 176.172392,23.3948218 C175.759162,23.028378 175.127114,23.0663452 174.760697,23.4795978 C174.735831,23.5076419 174.712561,23.5370618 174.690998,23.5677182 L172.127805,27.2118153 C171.833129,27.6307324 171.902617,28.2045737 172.288755,28.5410591 C175.700034,31.5136864 180.00981,33 185.218085,33 Z" id="Path" fill="#1F1F1F"></path>
                </g>
                <g id="Group-15" transform="translate(46.000000, 49.000000)">
                    <g id="nROAD" transform="translate(74.000000, 0.000000)">
                        <path d="M3.34222661,14.7916667 L3.34222661,7.5122549 C3.34222661,6.11029412 3.69873078,5.03635621 4.41173912,4.29044118 C5.12474746,3.54452614 6.09622133,3.17156863 7.32616072,3.17156863 C8.41349844,3.17156863 9.25128325,3.49060458 9.83951513,4.12867647 C10.427747,4.76674837 10.721863,5.71486928 10.721863,6.97303922 L10.721863,13.5916667 C10.721863,14.2544084 11.2591213,14.7916667 11.921863,14.7916667 L14.0640896,14.7916667 L14.0640896,14.7916667 L14.0640896,6.54166667 C14.0640896,4.45669935 13.5204207,2.88398693 12.433083,1.82352941 C11.3457453,0.763071895 9.90190336,0.232843137 8.10155729,0.232843137 C7.04986999,0.232843137 6.10513393,0.403594771 5.26734913,0.745098039 C4.42956433,1.08660131 3.73438119,1.58986928 3.18179973,2.25490196 L3.18179973,1.29460784 C3.18179973,0.797551568 2.778856,0.394607843 2.28179973,0.394607843 L0,0.394607843 L0,0.394607843 L0,13.5916667 C-8.01786863e-16,14.2544084 0.5372583,14.7916667 1.2,14.7916667 L3.34222661,14.7916667 L3.34222661,14.7916667 Z" id="n" fill="#FF7151" fill-rule="nonzero"></path>
                        <path d="M21.9672671,0.208333333 C23.2207034,0.208333333 24.3122948,0.416666667 25.2420415,0.833333333 C26.1717882,1.25 26.884594,1.84722222 27.3804589,2.625 C27.8763238,3.40277778 28.1242562,4.32638889 28.1242562,5.39583333 C28.1242562,6.49305556 27.8591062,7.4375 27.3288063,8.22916667 C26.8467154,8.94886364 26.173951,9.50212351 25.3105132,9.88894628 L25.0457617,10 L28.3721886,14.7916667 L26.1086536,14.7916667 C25.7585009,14.7916667 25.4281694,14.6389086 25.2016847,14.3774365 L25.1217849,14.2743746 L22.5251151,10.5208333 C22.442471,10.5300926 22.3322788,10.5362654 22.1945385,10.5393519 L22.0476156,10.5414095 L18.7851291,10.541027 L18.7848597,8.312 L21.8433009,8.3125 C22.9240321,8.3125 23.7641661,8.09652367 24.3637029,7.66457101 L24.5085747,7.55208333 C25.1146318,7.04513889 25.4176603,6.32638889 25.4176603,5.39583333 C25.4176603,4.46527778 25.1146318,3.75 24.5085747,3.25 C23.9025176,2.75 23.014093,2.5 21.8433009,2.5 L21.8433009,2.5 L18.7848597,2.5 L18.7851291,0.208026961 L21.9672671,0.208333333 Z M37.8762658,15 C39.3500864,15 40.6792798,14.6770833 41.8638459,14.03125 C43.0484121,13.3854167 43.9781587,12.4930556 44.653086,11.3541667 C45.3280132,10.2152778 45.6654768,8.93055556 45.6654768,7.5 C45.6654768,6.06944444 45.3280132,4.78472222 44.653086,3.64583333 C43.9781587,2.50694444 43.0484121,1.61458333 41.8638459,0.96875 C40.6792798,0.322916667 39.3500864,0 37.8762658,0 C36.4024451,0 35.0732517,0.322916667 33.8886856,0.96875 C32.7041194,1.61458333 31.7743728,2.51041667 31.0994456,3.65625 C30.4245183,4.80208333 30.0870547,6.08333333 30.0870547,7.5 C30.0870547,8.91666667 30.4245183,10.1979167 31.0994456,11.34375 C31.7743728,12.4895833 32.7041194,13.3854167 33.8886856,14.03125 C35.0732517,14.6770833 36.4024451,15 37.8762658,15 Z M37.8762658,12.625 C36.912084,12.625 36.0443205,12.40625 35.2729751,11.96875 C34.5016297,11.53125 33.8955726,10.9201389 33.4548038,10.1354167 C33.014035,9.35069444 32.7936506,8.47222222 32.7936506,7.5 C32.7936506,6.52777778 33.014035,5.64930556 33.4548038,4.86458333 C33.8955726,4.07986111 34.5016297,3.46875 35.2729751,3.03125 C36.0443205,2.59375 36.912084,2.375 37.8762658,2.375 C38.8404475,2.375 39.7082111,2.59375 40.4795564,3.03125 C41.2509018,3.46875 41.8569589,4.07986111 42.2977277,4.86458333 C42.7384965,5.64930556 42.9588809,6.52777778 42.9588809,7.5 C42.9588809,8.47222222 42.7384965,9.35069444 42.2977277,10.1354167 C41.8569589,10.9201389 41.2509018,11.53125 40.4795564,11.96875 C39.7082111,12.40625 38.8404475,12.625 37.8762658,12.625 Z M49.3428744,14.0586031 L50.4588374,11.4166667 L50.4588374,11.4166667 L57.6902004,11.4166667 L58.8247895,14.0643268 C59.0138736,14.5055704 59.4477313,14.7916667 59.927782,14.7916667 L61.9463741,14.7916667 L61.9463741,14.7916667 L55.7351988,0.917995897 C55.541905,0.486242626 55.1129973,0.208333333 54.6399504,0.208333333 L52.7728736,0.208333333 L52.7728736,0.208333333 L46.2646469,14.7916667 L48.2374467,14.7916667 C48.7197584,14.7916667 49.1552003,14.5029037 49.3428744,14.0586031 Z M56.8017758,9.29166667 L51.367923,9.29166667 L54.0745189,2.91666667 L56.8017758,9.29166667 Z M70.1074838,14.7916667 C71.6501746,14.7916667 73.02069,14.4895833 74.2190302,13.8854167 C75.4173703,13.28125 76.347117,12.4270833 77.0082702,11.3229167 C77.6694234,10.21875 78,8.94444444 78,7.5 C78,6.05555556 77.6694234,4.78125 77.0082702,3.67708333 C76.347117,2.57291667 75.4173703,1.71875 74.2190302,1.11458333 C73.02069,0.510416667 71.6501746,0.208333333 70.1074838,0.208333333 L63.7852064,0.208333333 L63.7852064,13.5916667 C63.7852064,14.2544084 64.3224647,14.7916667 64.9852064,14.7916667 L70.1074838,14.7916667 L70.1074838,14.7916667 Z M69.9835176,12.5 L66.4711412,12.5 L66.4711412,2.5 L69.9835176,2.5 C71.0441175,2.5 71.9773077,2.70486111 72.7830881,3.11458333 C73.5888686,3.52430556 74.2086997,4.10763889 74.6425815,4.86458333 C75.0764632,5.62152778 75.2934041,6.5 75.2934041,7.5 C75.2934041,8.5 75.0764632,9.37847222 74.6425815,10.1354167 C74.2086997,10.8923611 73.5888686,11.4756944 72.7830881,11.8854167 C71.9773077,12.2951389 71.0441175,12.5 69.9835176,12.5 L69.9835176,12.5 Z" id="ROAD" fill="#1F1F1F" fill-rule="nonzero"></path>
                        <path d="M15.6634094,0.208026961 L19.9319738,0.208026961 L19.9319738,2.5 L16.8634094,2.5 C16.2006677,2.5 15.6634094,1.9627417 15.6634094,1.3 L15.6634094,0.208026961 L15.6634094,0.208026961 Z" id="Rectangle" fill="#1F1F1F"></path>
                    </g>
                    <text id="Platform-by" font-family="ProximaNova-Light, Proxima Nova" font-size="14" font-weight="300" line-spacing="14" fill="#1F1F1F">
                        <tspan x="0" y="14">Platform by</tspan>
                    </text>
                </g>
                <path d="M201.352227,8 L201.352227,0.623688156 L204,0.623688156 L204,0 L198,0 L198,0.623688156 L200.647773,0.623688156 L200.647773,8 L201.352227,8 Z M206.639423,8 L206.639423,0.863568216 L209.376603,8 L209.623397,8 L212.349359,0.863568216 L212.349359,8 L213,8 L213,0 L212.035256,0 L209.5,6.65667166 L206.953526,0 L206,0 L206,8 L206.639423,8 Z" id="TM" fill="#1F1F1F" fill-rule="nonzero"></path>
            </g>
        </g>
    </g>
</svg>